{
    "asset" : {
        "generator" : "Khronos glTF Blender I/O v3.2.40",
        "version" : "2.0"
    },
    "scene" : 0,
    "scenes" : [
        {
            "name" : "Scene",
            "nodes" : [
                0
            ]
        }
    ],
    "nodes" : [
        {
            "mesh" : 0,
            "name" : "\u041f\u043b\u043e\u0441\u043a\u043e\u0441\u0442\u044c"
        }
    ],
    "animations" : [
        {
            "channels" : [
                {
                    "sampler" : 0,
                    "target" : {
                        "node" : 0,
                        "path" : "rotation"
                    }
                },
                {
                    "sampler" : 1,
                    "target" : {
                        "node" : 0,
                        "path" : "translation"
                    }
                },
                {
                    "sampler" : 2,
                    "target" : {
                        "node" : 0,
                        "path" : "scale"
                    }
                }
            ],
            "name" : "\u041f\u043b\u043e\u0441\u043a\u043e\u0441\u0442\u044cAction",
            "samplers" : [
                {
                    "input" : 8,
                    "interpolation" : "LINEAR",
                    "output" : 9
                },
                {
                    "input" : 10,
                    "interpolation" : "LINEAR",
                    "output" : 11
                },
                {
                    "input" : 10,
                    "interpolation" : "LINEAR",
                    "output" : 12
                }
            ]
        }
    ],
    "materials" : [
        {
            "doubleSided" : true,
            "name" : "\u041c\u0430\u0442\u0435\u0440\u0438\u0430\u043b",
            "pbrMetallicRoughness" : {
                "baseColorFactor" : [
                    0.8000000715255737,
                    0.04293302819132805,
                    0.051784347742795944,
                    1
                ],
                "metallicFactor" : 0
            }
        },
        {
            "doubleSided" : true,
            "name" : "\u041c\u0430\u0442\u0435\u0440\u0438\u0430\u043b.001",
            "pbrMetallicRoughness" : {
                "baseColorFactor" : [
                    0.800000011920929,
                    0.800000011920929,
                    0.800000011920929,
                    1
                ],
                "metallicFactor" : 0
            }
        }
    ],
    "meshes" : [
        {
            "name" : "\u041f\u043b\u043e\u0441\u043a\u043e\u0441\u0442\u044c",
            "primitives" : [
                {
                    "attributes" : {
                        "POSITION" : 0,
                        "NORMAL" : 1,
                        "TEXCOORD_0" : 2
                    },
                    "indices" : 3,
                    "material" : 0
                },
                {
                    "attributes" : {
                        "POSITION" : 4,
                        "NORMAL" : 5,
                        "TEXCOORD_0" : 6
                    },
                    "indices" : 7,
                    "material" : 1
                }
            ]
        }
    ],
    "accessors" : [
        {
            "bufferView" : 0,
            "componentType" : 5126,
            "count" : 7232,
            "max" : [
                1.5769572257995605,
                0.6010599732398987,
                1.0545134544372559
            ],
            "min" : [
                -1.4639830589294434,
                -0.6739950180053711,
                -1.0554338693618774
            ],
            "type" : "VEC3"
        },
        {
            "bufferView" : 1,
            "componentType" : 5126,
            "count" : 7232,
            "type" : "VEC3"
        },
        {
            "bufferView" : 2,
            "componentType" : 5126,
            "count" : 7232,
            "type" : "VEC2"
        },
        {
            "bufferView" : 3,
            "componentType" : 5123,
            "count" : 43008,
            "type" : "SCALAR"
        },
        {
            "bufferView" : 4,
            "componentType" : 5126,
            "count" : 32825,
            "max" : [
                1.8219153881072998,
                -0.021412868052721024,
                1.1848647594451904
            ],
            "min" : [
                -1.6231744289398193,
                -1.4370630979537964,
                -1.2273731231689453
            ],
            "type" : "VEC3"
        },
        {
            "bufferView" : 5,
            "componentType" : 5126,
            "count" : 32825,
            "type" : "VEC3"
        },
        {
            "bufferView" : 6,
            "componentType" : 5126,
            "count" : 32825,
            "type" : "VEC2"
        },
        {
            "bufferView" : 7,
            "componentType" : 5123,
            "count" : 195072,
            "type" : "SCALAR"
        },
        {
            "bufferView" : 8,
            "componentType" : 5126,
            "count" : 160,
            "max" : [
                6.666666666666667
            ],
            "min" : [
                0.041666666666666664
            ],
            "type" : "SCALAR"
        },
        {
            "bufferView" : 9,
            "componentType" : 5126,
            "count" : 160,
            "type" : "VEC4"
        },
        {
            "bufferView" : 10,
            "componentType" : 5126,
            "count" : 121,
            "max" : [
                6.666666666666667
            ],
            "min" : [
                1.6666666666666667
            ],
            "type" : "SCALAR"
        },
        {
            "bufferView" : 11,
            "componentType" : 5126,
            "count" : 121,
            "type" : "VEC3"
        },
        {
            "bufferView" : 12,
            "componentType" : 5126,
            "count" : 121,
            "type" : "VEC3"
        }
    ],
    "bufferViews" : [
        {
            "buffer" : 0,
            "byteLength" : 86784,
            "byteOffset" : 0
        },
        {
            "buffer" : 0,
            "byteLength" : 86784,
            "byteOffset" : 86784
        },
        {
            "buffer" : 0,
            "byteLength" : 57856,
            "byteOffset" : 173568
        },
        {
            "buffer" : 0,
            "byteLength" : 86016,
            "byteOffset" : 231424
        },
        {
            "buffer" : 0,
            "byteLength" : 393900,
            "byteOffset" : 317440
        },
        {
            "buffer" : 0,
            "byteLength" : 393900,
            "byteOffset" : 711340
        },
        {
            "buffer" : 0,
            "byteLength" : 262600,
            "byteOffset" : 1105240
        },
        {
            "buffer" : 0,
            "byteLength" : 390144,
            "byteOffset" : 1367840
        },
        {
            "buffer" : 0,
            "byteLength" : 640,
            "byteOffset" : 1757984
        },
        {
            "buffer" : 0,
            "byteLength" : 2560,
            "byteOffset" : 1758624
        },
        {
            "buffer" : 0,
            "byteLength" : 484,
            "byteOffset" : 1761184
        },
        {
            "buffer" : 0,
            "byteLength" : 1452,
            "byteOffset" : 1761668
        },
        {
            "buffer" : 0,
            "byteLength" : 1452,
            "byteOffset" : 1763120
        }
    ],
    "buffers" : [
        {
            "byteLength" : 1764572,
            "uri" : "data:application/octet-stream;base64,"
        }
    ]
}
